STARTFONT 2.3
FONT -FontForge-Permanent Marker-Book-R-Normal--12-120-72-72-P-69-ISO10646-1
SIZE 12 72 72  2
FONTBOUNDINGBOX 19 17 -4 -4
COMMENT "Generated by fontforge, http://fontforge.sourceforge.net"
COMMENT "Copyright (c) 2010 by Font Diner, Inc. All rights reserved."
STARTPROPERTIES 40
FOUNDRY "FontForge"
FAMILY_NAME "Permanent Marker"
WEIGHT_NAME "Book"
SLANT "R"
SETWIDTH_NAME "Normal"
ADD_STYLE_NAME ""
PIXEL_SIZE 12
POINT_SIZE 120
RESOLUTION_X 72
RESOLUTION_Y 72
SPACING "P"
AVERAGE_WIDTH 69
CHARSET_REGISTRY "ISO10646"
CHARSET_ENCODING "1"
FONTNAME_REGISTRY ""
CHARSET_COLLECTIONS "ISO10646-1"
BITS_PER_PIXEL 2
FONT_NAME "PermanentMarker-Regular"
FACE_NAME "Permanent Marker Regular"
COPYRIGHT "Copyright (c) 2010 by Font Diner, Inc. All rights reserved."
FONT_VERSION "1.001"
FONT_ASCENT 10
FONT_DESCENT 2
UNDERLINE_POSITION -1
UNDERLINE_THICKNESS 1
X_HEIGHT 6
CAP_HEIGHT 8
RAW_ASCENT 799
RAW_DESCENT 200
NORM_SPACE 4
RELATIVE_WEIGHT 40
RELATIVE_SETWIDTH 50
SUPERSCRIPT_X 0
SUPERSCRIPT_Y 5
SUPERSCRIPT_SIZE 7
SUBSCRIPT_X 0
SUBSCRIPT_Y 1
SUBSCRIPT_SIZE 7
AVG_LOWERCASE_WIDTH 69
AVG_UPPERCASE_WIDTH 80
ENDPROPERTIES
CHARS 230
STARTCHAR space
ENCODING 32
SWIDTH 370 0
DWIDTH 4 0
BBX 1 1 0 0
BITMAP
00
ENDCHAR
STARTCHAR exclam
ENCODING 33
SWIDTH 260 0
DWIDTH 3 0
BBX 4 9 0 0
BITMAP
08
1D
2C
3C
38
34
10
A0
B0
ENDCHAR
STARTCHAR quotedbl
ENCODING 34
SWIDTH 492 0
DWIDTH 6 0
BBX 6 6 1 3
BITMAP
2580
7AD0
B780
F780
E740
5200
ENDCHAR
STARTCHAR numbersign
ENCODING 35
SWIDTH 703 0
DWIDTH 8 0
BBX 9 9 0 0
BITMAP
010400
038D00
07AE00
3FFF40
1E3800
6FBD00
BEF900
38E000
35D000
ENDCHAR
STARTCHAR dollar
ENCODING 36
SWIDTH 493 0
DWIDTH 6 0
BBX 7 9 0 0
BITMAP
0040
02C0
1BF4
BE54
7F40
0180
1B80
3E00
2C00
ENDCHAR
STARTCHAR percent
ENCODING 37
SWIDTH 643 0
DWIDTH 8 0
BBX 8 9 0 0
BITMAP
0401
1E0A
7B2D
7EB4
02D0
0B64
2DF8
75EC
60A4
ENDCHAR
STARTCHAR ampersand
ENCODING 38
SWIDTH 599 0
DWIDTH 7 0
BBX 7 7 0 0
BITMAP
0040
12C0
7FD0
FFF8
2B90
0B40
0500
ENDCHAR
STARTCHAR quotesingle
ENCODING 39
SWIDTH 265 0
DWIDTH 3 0
BBX 3 6 1 3
BITMAP
24
78
B0
F0
E0
50
ENDCHAR
STARTCHAR parenleft
ENCODING 40
SWIDTH 361 0
DWIDTH 4 0
BBX 6 12 0 -2
BITMAP
00A0
02E0
0B80
1E00
3D00
3800
7400
B400
B400
7400
7800
2800
ENDCHAR
STARTCHAR parenright
ENCODING 41
SWIDTH 361 0
DWIDTH 4 0
BBX 6 12 -2 -2
BITMAP
0180
01D0
01E0
00E0
00E0
01E0
01D0
03C0
0B80
1F00
7D00
7000
ENDCHAR
STARTCHAR asterisk
ENCODING 42
SWIDTH 673 0
DWIDTH 8 0
BBX 8 6 1 3
BITMAP
0860
1EE0
5FE4
FFE9
1FD0
3C90
ENDCHAR
STARTCHAR plus
ENCODING 43
SWIDTH 579 0
DWIDTH 7 0
BBX 6 7 0 0
BITMAP
0100
0740
0B40
BFF0
6F90
0E00
0900
ENDCHAR
STARTCHAR comma
ENCODING 44
SWIDTH 204 0
DWIDTH 2 0
BBX 3 4 -1 -2
BITMAP
20
74
F0
E0
ENDCHAR
STARTCHAR hyphen
ENCODING 45
SWIDTH 609 0
DWIDTH 7 0
BBX 7 2 0 2
BITMAP
BFF4
6A90
ENDCHAR
STARTCHAR period
ENCODING 46
SWIDTH 228 0
DWIDTH 3 0
BBX 3 3 -1 -1
BITMAP
24
78
10
ENDCHAR
STARTCHAR slash
ENCODING 47
SWIDTH 401 0
DWIDTH 5 0
BBX 7 9 -1 0
BITMAP
0004
0028
00B4
01E0
0780
0E00
3C00
7400
7000
ENDCHAR
STARTCHAR zero
ENCODING 48
SWIDTH 686 0
DWIDTH 8 0
BBX 8 10 0 -1
BITMAP
00B0
02F4
0BF4
2F7C
7D1D
B81E
B46E
BFFD
7FE4
0500
ENDCHAR
STARTCHAR one
ENCODING 49
SWIDTH 322 0
DWIDTH 4 0
BBX 4 9 0 0
BITMAP
20
3C
2C
2D
2D
3C
78
B4
B0
ENDCHAR
STARTCHAR two
ENCODING 50
SWIDTH 650 0
DWIDTH 8 0
BBX 9 9 0 0
BITMAP
1A9000
3FF800
29BC00
01F800
07E000
1F8000
3E6A00
7FFF40
2FA400
ENDCHAR
STARTCHAR three
ENCODING 51
SWIDTH 561 0
DWIDTH 7 0
BBX 7 9 0 0
BITMAP
16A0
FFF4
FFF4
2F90
2FD0
0BF0
01F4
BFE0
BE40
ENDCHAR
STARTCHAR four
ENCODING 52
SWIDTH 582 0
DWIDTH 7 0
BBX 7 10 0 -1
BITMAP
0090
60E0
70E0
79F8
3FF8
1BD0
0380
0380
03C0
0140
ENDCHAR
STARTCHAR five
ENCODING 53
SWIDTH 580 0
DWIDTH 7 0
BBX 8 9 0 0
BITMAP
0100
1FFE
7FFE
7F50
3F80
07D0
11E0
7FE0
2F80
ENDCHAR
STARTCHAR six
ENCODING 54
SWIDTH 500 0
DWIDTH 6 0
BBX 6 9 0 0
BITMAP
0640
0F80
2E40
3C00
7540
BBD0
EFE0
FFD0
BE00
ENDCHAR
STARTCHAR seven
ENCODING 55
SWIDTH 576 0
DWIDTH 7 0
BBX 8 9 0 0
BITMAP
6940
BFD0
6AF0
00B0
16F9
3FF9
2B80
0F00
0E00
ENDCHAR
STARTCHAR eight
ENCODING 56
SWIDTH 537 0
DWIDTH 6 0
BBX 7 9 0 0
BITMAP
0A54
2FE8
7AEC
39F8
2FD0
2F40
3A80
3FC0
1F40
ENDCHAR
STARTCHAR nine
ENCODING 57
SWIDTH 529 0
DWIDTH 6 0
BBX 7 9 0 0
BITMAP
0680
1FE0
7EF0
7FF4
7FE0
00D0
01D0
02C0
0280
ENDCHAR
STARTCHAR colon
ENCODING 58
SWIDTH 241 0
DWIDTH 3 0
BBX 4 6 -1 -1
BITMAP
2D
1D
00
24
78
10
ENDCHAR
STARTCHAR semicolon
ENCODING 59
SWIDTH 245 0
DWIDTH 3 0
BBX 4 7 -1 -2
BITMAP
2D
1D
00
24
38
78
B0
ENDCHAR
STARTCHAR less
ENCODING 60
SWIDTH 625 0
DWIDTH 8 0
BBX 8 6 0 0
BITMAP
0018
06FD
BF90
BE40
1BE0
0060
ENDCHAR
STARTCHAR equal
ENCODING 61
SWIDTH 586 0
DWIDTH 7 0
BBX 7 5 0 1
BITMAP
0550
7FF4
1540
AFE0
AA50
ENDCHAR
STARTCHAR greater
ENCODING 62
SWIDTH 634 0
DWIDTH 8 0
BBX 8 6 -1 0
BITMAP
1900
0BE4
01BE
06FA
7F40
6400
ENDCHAR
STARTCHAR question
ENCODING 63
SWIDTH 556 0
DWIDTH 7 0
BBX 8 10 0 -1
BITMAP
1AA4
3FFD
15BD
01FC
0BE0
1E00
0400
6400
7800
1000
ENDCHAR
STARTCHAR at
ENCODING 64
SWIDTH 732 0
DWIDTH 9 0
BBX 9 10 0 -1
BITMAP
00A400
01FD00
078A00
2E6740
BAF680
EB7740
D7FD00
B55400
2FFD00
005000
ENDCHAR
STARTCHAR A
ENCODING 65
SWIDTH 702 0
DWIDTH 8 0
BBX 9 9 0 0
BITMAP
005000
01F400
0BF400
1FB800
2E7D00
7EBF40
BBFE00
F02D00
E03C00
ENDCHAR
STARTCHAR B
ENCODING 66
SWIDTH 686 0
DWIDTH 8 0
BBX 8 10 0 -1
BITMAP
16A4
FFFD
FD7D
1FF8
1FF4
2E5D
3C2E
7EFD
7FE0
0100
ENDCHAR
STARTCHAR C
ENCODING 67
SWIDTH 611 0
DWIDTH 7 0
BBX 7 9 0 0
BITMAP
0024
02FC
1FF8
7F40
F800
F000
B500
7FF4
1BF4
ENDCHAR
STARTCHAR D
ENCODING 68
SWIDTH 588 0
DWIDTH 7 0
BBX 7 9 0 0
BITMAP
2000
3E40
7BD0
34B4
3428
74B8
BBF0
BF80
B800
ENDCHAR
STARTCHAR E
ENCODING 69
SWIDTH 626 0
DWIDTH 8 0
BBX 8 9 0 0
BITMAP
0059
2FFE
3FE4
2E50
3FF4
7E90
F414
BFFC
7FE4
ENDCHAR
STARTCHAR F
ENCODING 70
SWIDTH 575 0
DWIDTH 7 0
BBX 9 9 0 0
BITMAP
006A00
2FFF40
7F5000
2E0000
6EA000
FFF400
B94000
B00000
700000
ENDCHAR
STARTCHAR G
ENCODING 71
SWIDTH 789 0
DWIDTH 9 0
BBX 10 9 0 0
BITMAP
001400
01BD00
07F800
1F9000
7E0E40
B80FE0
F46FE0
BFFF80
2FA400
ENDCHAR
STARTCHAR H
ENCODING 72
SWIDTH 695 0
DWIDTH 8 0
BBX 8 9 0 0
BITMAP
0008
280E
3D0F
3C0F
7C6F
7FFE
BFBD
F83C
B428
ENDCHAR
STARTCHAR I
ENCODING 73
SWIDTH 515 0
DWIDTH 6 0
BBX 9 9 -1 0
BITMAP
05AA00
0BFF80
01B400
00F000
01E000
02D000
03C000
6FF000
7EA000
ENDCHAR
STARTCHAR J
ENCODING 74
SWIDTH 668 0
DWIDTH 8 0
BBX 11 9 -1 0
BITMAP
015690
0FFFF4
0EAF54
001E00
002D00
003C00
107800
7FF400
2BD000
ENDCHAR
STARTCHAR K
ENCODING 75
SWIDTH 776 0
DWIDTH 9 0
BBX 10 9 0 0
BITMAP
050000
0F4780
1F6F80
2EFD00
3FF400
7FE000
BEFE80
BC2FD0
740540
ENDCHAR
STARTCHAR L
ENCODING 76
SWIDTH 632 0
DWIDTH 8 0
BBX 7 9 0 0
BITMAP
0900
1F00
2E00
3D00
7C00
B800
B550
BFFC
7EA8
ENDCHAR
STARTCHAR M
ENCODING 77
SWIDTH 973 0
DWIDTH 12 0
BBX 12 9 0 0
BITMAP
024014
0BD03D
0FE1FD
2FEBFD
3FFFBD
7DFE3C
B8107C
F40078
A00020
ENDCHAR
STARTCHAR N
ENCODING 78
SWIDTH 684 0
DWIDTH 8 0
BBX 9 9 0 0
BITMAP
050500
0B4B40
0F8F40
2F4F00
3F5E00
BF7E00
FBFD00
F5F800
606000
ENDCHAR
STARTCHAR O
ENCODING 79
SWIDTH 744 0
DWIDTH 9 0
BBX 9 9 0 0
BITMAP
006400
01FC00
07FC00
1FAE00
7D0B00
B80740
F06F40
BFFE00
2FE400
ENDCHAR
STARTCHAR P
ENCODING 80
SWIDTH 639 0
DWIDTH 8 0
BBX 8 9 0 0
BITMAP
01A4
0BFE
0FAF
2E6F
7FFE
7FE4
7C00
7800
7400
ENDCHAR
STARTCHAR Q
ENCODING 81
SWIDTH 744 0
DWIDTH 9 0
BBX 9 10 0 -1
BITMAP
006400
00FD00
07FE00
1F8B40
7E4380
F8BB80
F0BF40
FFFE00
7F9F00
000600
ENDCHAR
STARTCHAR R
ENCODING 82
SWIDTH 646 0
DWIDTH 8 0
BBX 8 10 0 -1
BITMAP
0190
03F4
1FF8
3E7C
7EFC
7FE0
BF40
BBF9
A1BE
0005
ENDCHAR
STARTCHAR S
ENCODING 83
SWIDTH 576 0
DWIDTH 7 0
BBX 8 9 0 0
BITMAP
0169
1FFF
BF55
BF80
2BD0
00B0
02E0
6FD0
7E00
ENDCHAR
STARTCHAR T
ENCODING 84
SWIDTH 607 0
DWIDTH 7 0
BBX 10 9 0 0
BITMAP
05AA80
FFFFD0
BBE500
03C000
0B8000
0F0000
1E0000
1D0000
0F0000
ENDCHAR
STARTCHAR U
ENCODING 85
SWIDTH 695 0
DWIDTH 8 0
BBX 9 9 0 0
BITMAP
000100
200340
380780
7C0B40
781F40
787E00
7FF800
3FE000
1F4000
ENDCHAR
STARTCHAR V
ENCODING 86
SWIDTH 583 0
DWIDTH 7 0
BBX 8 9 0 0
BITMAP
1005
741E
387D
3CF8
3EE0
3FD0
2F80
2F00
0E00
ENDCHAR
STARTCHAR W
ENCODING 87
SWIDTH 994 0
DWIDTH 12 0
BBX 13 9 0 0
BITMAP
04000100
1E050B40
2D1F0F40
3C2F1F00
7C7E2E00
B9FE7C00
BBFFF800
7FC7F000
2E02D000
ENDCHAR
STARTCHAR X
ENCODING 88
SWIDTH 623 0
DWIDTH 7 0
BBX 8 10 0 -1
BITMAP
1001
3D1F
2FBE
0FF4
0FD0
2FE0
BDF4
F0B8
D034
4000
ENDCHAR
STARTCHAR Y
ENCODING 89
SWIDTH 493 0
DWIDTH 6 0
BBX 7 10 0 -1
BITMAP
2028
78BC
3DF4
3FD0
2F80
1F40
2E00
7C00
7800
1000
ENDCHAR
STARTCHAR Z
ENCODING 90
SWIDTH 664 0
DWIDTH 8 0
BBX 9 10 0 -1
BITMAP
0AA500
1FFF40
05BF00
01F800
0BE000
7F4000
FD1800
FAFD00
BFE400
150000
ENDCHAR
STARTCHAR bracketleft
ENCODING 91
SWIDTH 387 0
DWIDTH 5 0
BBX 10 13 -1 -2
BITMAP
01AA80
02FFD0
02C000
038000
078000
0B4000
0B0000
0E0000
1E0000
2D0000
3C0000
7FF000
3A9000
ENDCHAR
STARTCHAR backslash
ENCODING 92
SWIDTH 352 0
DWIDTH 4 0
BBX 4 10 0 -1
BITMAP
60
74
34
28
28
1C
1D
1D
0D
04
ENDCHAR
STARTCHAR bracketright
ENCODING 93
SWIDTH 403 0
DWIDTH 5 0
BBX 9 13 -4 -2
BITMAP
01AF40
01FFC0
000380
000740
000B40
000F00
000E00
001D00
002D00
003C00
007800
6FF400
3A9000
ENDCHAR
STARTCHAR asciicircum
ENCODING 94
SWIDTH 518 0
DWIDTH 6 0
BBX 6 7 0 2
BITMAP
0280
03C0
0BD0
1ED0
3DD0
B4D0
9050
ENDCHAR
STARTCHAR underscore
ENCODING 95
SWIDTH 708 0
DWIDTH 9 0
BBX 10 3 -1 -1
BITMAP
555500
FFFFD0
555000
ENDCHAR
STARTCHAR grave
ENCODING 96
SWIDTH 754 0
DWIDTH 9 0
BBX 4 4 3 5
BITMAP
20
7C
1F
06
ENDCHAR
STARTCHAR a
ENCODING 97
SWIDTH 581 0
DWIDTH 7 0
BBX 7 7 0 0
BITMAP
02C0
0FD0
2ED0
3CF4
BFF8
E5B4
D0E0
ENDCHAR
STARTCHAR b
ENCODING 98
SWIDTH 573 0
DWIDTH 7 0
BBX 7 9 0 -1
BITMAP
0140
BFE0
F9F0
6FE0
2FD0
3874
7AF4
7F90
0400
ENDCHAR
STARTCHAR c
ENCODING 99
SWIDTH 513 0
DWIDTH 6 0
BBX 6 7 0 0
BITMAP
02E0
1FE0
7E00
F400
E000
BA90
2FD0
ENDCHAR
STARTCHAR d
ENCODING 100
SWIDTH 497 0
DWIDTH 6 0
BBX 6 7 0 0
BITMAP
7800
7F40
71D0
70A0
76D0
BF40
B800
ENDCHAR
STARTCHAR e
ENCODING 101
SWIDTH 521 0
DWIDTH 6 0
BBX 7 7 0 0
BITMAP
1AF4
7F90
3D40
7FD0
B500
FAA0
BFD0
ENDCHAR
STARTCHAR f
ENCODING 102
SWIDTH 455 0
DWIDTH 5 0
BBX 7 8 0 0
BITMAP
0010
1BFC
7E54
2C00
BE90
FF80
B000
A000
ENDCHAR
STARTCHAR g
ENCODING 103
SWIDTH 652 0
DWIDTH 8 0
BBX 9 7 0 0
BITMAP
01F000
0BE000
2F4000
783900
F03F40
BBFE00
7F9000
ENDCHAR
STARTCHAR h
ENCODING 104
SWIDTH 582 0
DWIDTH 7 0
BBX 7 7 0 0
BITMAP
2034
3838
3838
79B8
BFF4
F9F0
F0A0
ENDCHAR
STARTCHAR i
ENCODING 105
SWIDTH 320 0
DWIDTH 4 0
BBX 3 7 0 0
BITMAP
1C
2C
3C
38
74
74
34
ENDCHAR
STARTCHAR j
ENCODING 106
SWIDTH 534 0
DWIDTH 6 0
BBX 8 7 0 0
BITMAP
6FFE
7AF9
00D0
01D0
02C0
AB80
BE00
ENDCHAR
STARTCHAR k
ENCODING 107
SWIDTH 645 0
DWIDTH 8 0
BBX 8 7 0 0
BITMAP
0D18
2D7D
3EF4
7F80
BFD0
B9FF
B019
ENDCHAR
STARTCHAR l
ENCODING 108
SWIDTH 533 0
DWIDTH 6 0
BBX 6 7 0 0
BITMAP
1D00
2D00
3800
7400
B000
FBE0
BEA0
ENDCHAR
STARTCHAR m
ENCODING 109
SWIDTH 814 0
DWIDTH 10 0
BBX 10 7 0 0
BITMAP
0B41D0
1F87E0
2FAFD0
7FFED0
B5A2D0
F002C0
A00240
ENDCHAR
STARTCHAR n
ENCODING 110
SWIDTH 564 0
DWIDTH 7 0
BBX 7 7 0 0
BITMAP
0D28
1F3C
3E38
7E74
FEF4
F7E0
A180
ENDCHAR
STARTCHAR o
ENCODING 111
SWIDTH 628 0
DWIDTH 8 0
BBX 7 8 0 0
BITMAP
0040
02E0
0BF0
2E74
7828
B02C
BAFC
7FE0
ENDCHAR
STARTCHAR p
ENCODING 112
SWIDTH 524 0
DWIDTH 6 0
BBX 7 8 0 0
BITMAP
0140
0BF0
1EB4
7DB8
BFF4
7A40
B400
B000
ENDCHAR
STARTCHAR q
ENCODING 113
SWIDTH 625 0
DWIDTH 8 0
BBX 8 9 0 -1
BITMAP
0040
01E0
07F4
2F6C
B95D
F1FC
EBF4
BFB8
0014
ENDCHAR
STARTCHAR r
ENCODING 114
SWIDTH 541 0
DWIDTH 7 0
BBX 7 8 0 -1
BITMAP
0780
1FE0
3CF0
7FE0
BE40
BF50
A6F4
0050
ENDCHAR
STARTCHAR s
ENCODING 115
SWIDTH 463 0
DWIDTH 6 0
BBX 7 8 0 -1
BITMAP
1BF8
BEA4
BE00
1B80
02C0
1B80
7D00
1000
ENDCHAR
STARTCHAR t
ENCODING 116
SWIDTH 479 0
DWIDTH 6 0
BBX 8 8 0 0
BITMAP
0014
ABFE
BF95
0B00
0E00
1D00
2C00
1C00
ENDCHAR
STARTCHAR u
ENCODING 117
SWIDTH 584 0
DWIDTH 7 0
BBX 8 7 0 0
BITMAP
100C
341D
742C
7478
7AF4
3FD0
2E40
ENDCHAR
STARTCHAR v
ENCODING 118
SWIDTH 485 0
DWIDTH 6 0
BBX 6 7 1 0
BITMAP
C0E0
D2D0
E780
EF00
FD00
B800
7000
ENDCHAR
STARTCHAR w
ENCODING 119
SWIDTH 825 0
DWIDTH 10 0
BBX 11 7 0 0
BITMAP
181034
3C3874
78B8F0
75F5E0
B7FBC0
BFAF80
3D0E00
ENDCHAR
STARTCHAR x
ENCODING 120
SWIDTH 506 0
DWIDTH 6 0
BBX 7 8 0 -1
BITMAP
3424
3DF8
1FD0
1F40
7F80
F2D0
D0D0
4000
ENDCHAR
STARTCHAR y
ENCODING 121
SWIDTH 400 0
DWIDTH 5 0
BBX 6 8 0 -1
BITMAP
70F0
76E0
3F80
2F00
2D00
3800
7400
1000
ENDCHAR
STARTCHAR z
ENCODING 122
SWIDTH 547 0
DWIDTH 7 0
BBX 7 8 0 -1
BITMAP
2FF8
0AF8
02E0
1F80
BD00
F6F0
FF90
1400
ENDCHAR
STARTCHAR braceleft
ENCODING 123
SWIDTH 448 0
DWIDTH 5 0
BBX 10 13 0 -2
BITMAP
01AA80
02FFD0
02C000
03C000
078000
7F4000
BC0000
2F0000
1E0000
2D0000
3C0000
7FF000
3A9000
ENDCHAR
STARTCHAR bar
ENCODING 124
SWIDTH 332 0
DWIDTH 4 0
BBX 4 9 0 0
BITMAP
01
0B
0E
1D
2C
38
74
B0
E0
ENDCHAR
STARTCHAR braceright
ENCODING 125
SWIDTH 481 0
DWIDTH 6 0
BBX 10 13 -4 -2
BITMAP
01AE40
02FF80
000780
000740
000B00
000F40
0007D0
001BD0
002D00
003800
007400
6FF000
7A9000
ENDCHAR
STARTCHAR asciitilde
ENCODING 126
SWIDTH 581 0
DWIDTH 7 0
BBX 7 3 0 2
BITMAP
2924
BBF0
4140
ENDCHAR
STARTCHAR uni00A0
ENCODING 160
SWIDTH 370 0
DWIDTH 4 0
BBX 1 1 0 0
BITMAP
00
ENDCHAR
STARTCHAR exclamdown
ENCODING 161
SWIDTH 260 0
DWIDTH 3 0
BBX 3 9 0 0
BITMAP
28
3C
00
20
74
B0
E0
E0
D0
ENDCHAR
STARTCHAR cent
ENCODING 162
SWIDTH 488 0
DWIDTH 6 0
BBX 6 9 0 0
BITMAP
0100
0380
0BD0
3F40
B400
A000
7E80
2E80
2800
ENDCHAR
STARTCHAR sterling
ENCODING 163
SWIDTH 586 0
DWIDTH 7 0
BBX 7 7 0 1
BITMAP
02A4
0BFC
0E00
BFE0
7D40
7DA0
FFE0
ENDCHAR
STARTCHAR currency
ENCODING 164
SWIDTH 509 0
DWIDTH 6 0
BBX 6 7 0 0
BITMAP
1110
3FF0
3FD0
76C0
BFC0
AAC0
4040
ENDCHAR
STARTCHAR yen
ENCODING 165
SWIDTH 563 0
DWIDTH 7 0
BBX 7 8 0 0
BITMAP
1414
2C78
1DF0
1FD0
BFF4
6F50
2D00
2C00
ENDCHAR
STARTCHAR brokenbar
ENCODING 166
SWIDTH 301 0
DWIDTH 4 0
BBX 4 9 0 0
BITMAP
05
0A
0E
1C
04
10
74
E0
D0
ENDCHAR
STARTCHAR section
ENCODING 167
SWIDTH 630 0
DWIDTH 8 0
BBX 8 11 0 -1
BITMAP
0054
1FFD
3E98
2F80
2FF4
797C
7EF8
1FF0
01F4
6BF4
BF90
ENDCHAR
STARTCHAR dieresis
ENCODING 168
SWIDTH 754 0
DWIDTH 9 0
BBX 6 2 2 7
BITMAP
2490
78E0
ENDCHAR
STARTCHAR copyright
ENCODING 169
SWIDTH 614 0
DWIDTH 7 0
BBX 8 8 0 1
BITMAP
0190
1E64
35EC
6A49
980D
AB9C
35B4
0A80
ENDCHAR
STARTCHAR ordfeminine
ENCODING 170
SWIDTH 454 0
DWIDTH 5 0
BBX 6 6 0 2
BITMAP
0600
1F40
3F80
BFD0
EBC0
5100
ENDCHAR
STARTCHAR guillemotleft
ENCODING 171
SWIDTH 566 0
DWIDTH 7 0
BBX 7 5 0 0
BITMAP
0924
7DF0
E780
B6D0
2CA0
ENDCHAR
STARTCHAR logicalnot
ENCODING 172
SWIDTH 698 0
DWIDTH 8 0
BBX 8 4 0 0
BITMAP
BFFD
AAAD
002C
0028
ENDCHAR
STARTCHAR sfthyphen
ENCODING 173
SWIDTH 608 0
DWIDTH 7 0
BBX 7 2 0 2
BITMAP
BFF4
6A90
ENDCHAR
STARTCHAR registered
ENCODING 174
SWIDTH 624 0
DWIDTH 7 0
BBX 8 8 0 1
BITMAP
0190
1E68
39DC
77A9
AB89
AAEC
34B4
0A80
ENDCHAR
STARTCHAR macron
ENCODING 175
SWIDTH 754 0
DWIDTH 9 0
BBX 4 2 3 7
BITMAP
AE
AA
ENDCHAR
STARTCHAR degree
ENCODING 176
SWIDTH 284 0
DWIDTH 3 0
BBX 4 4 1 6
BITMAP
18
7C
ED
B8
ENDCHAR
STARTCHAR plusminus
ENCODING 177
SWIDTH 559 0
DWIDTH 7 0
BBX 8 9 -1 -1
BITMAP
00A0
00E0
1BFD
1FE9
02C0
0280
1AA4
7FF8
1000
ENDCHAR
STARTCHAR twosuperior
ENCODING 178
SWIDTH 386 0
DWIDTH 5 0
BBX 4 5 1 4
BITMAP
64
FD
7C
FB
A9
ENDCHAR
STARTCHAR threesuperior
ENCODING 179
SWIDTH 366 0
DWIDTH 4 0
BBX 4 5 1 4
BITMAP
58
FD
7D
6E
69
ENDCHAR
STARTCHAR acute
ENCODING 180
SWIDTH 754 0
DWIDTH 9 0
BBX 4 4 3 5
BITMAP
06
2F
78
50
ENDCHAR
STARTCHAR mu
ENCODING 181
SWIDTH 569 0
DWIDTH 7 0
BBX 7 9 0 -2
BITMAP
0010
2024
3438
7474
B5F0
BFC0
FE00
D000
4000
ENDCHAR
STARTCHAR paragraph
ENCODING 182
SWIDTH 729 0
DWIDTH 9 0
BBX 10 10 0 -1
BITMAP
01AF80
1FFFD0
7EF740
38EB00
2FEE00
06FF00
02ED00
029D00
039E00
000400
ENDCHAR
STARTCHAR periodcentered
ENCODING 183
SWIDTH 226 0
DWIDTH 3 0
BBX 3 3 0 3
BITMAP
10
74
10
ENDCHAR
STARTCHAR cedilla
ENCODING 184
SWIDTH 754 0
DWIDTH 9 0
BBX 5 5 3 -4
BITMAP
1400
3800
2E00
6B40
6900
ENDCHAR
STARTCHAR onesuperior
ENCODING 185
SWIDTH 206 0
DWIDTH 2 0
BBX 2 5 1 4
BITMAP
40
A0
A0
D0
80
ENDCHAR
STARTCHAR ordmasculine
ENCODING 186
SWIDTH 445 0
DWIDTH 5 0
BBX 5 6 0 2
BITMAP
0600
1F40
7F80
B6C0
BFC0
2900
ENDCHAR
STARTCHAR guillemotright
ENCODING 187
SWIDTH 595 0
DWIDTH 7 0
BBX 8 5 -1 0
BITMAP
28A0
1E7C
0B5D
2EB8
74D0
ENDCHAR
STARTCHAR onequarter
ENCODING 188
SWIDTH 705 0
DWIDTH 8 0
BBX 8 9 0 0
BITMAP
1014
3838
38F0
76D0
6788
1E9D
38BF
B028
B028
ENDCHAR
STARTCHAR onehalf
ENCODING 189
SWIDTH 750 0
DWIDTH 9 0
BBX 8 9 0 0
BITMAP
1014
3838
38F0
76D0
6794
1EBE
382D
B0BE
B0BE
ENDCHAR
STARTCHAR threequarters
ENCODING 190
SWIDTH 818 0
DWIDTH 10 0
BBX 8 9 1 0
BITMAP
A905
FD1E
7C7C
BDE0
A785
0EAA
38BF
B02C
E028
ENDCHAR
STARTCHAR questiondown
ENCODING 191
SWIDTH 556 0
DWIDTH 7 0
BBX 7 10 -1 -1
BITMAP
0018
003C
0004
0060
06E0
2F80
7D00
BFB4
7FF4
0150
ENDCHAR
STARTCHAR Agrave
ENCODING 192
SWIDTH 702 0
DWIDTH 8 0
BBX 9 13 0 0
BITMAP
008000
01F000
007C00
001800
005000
01F400
0BF400
1FB800
2E7D00
7EBF40
BBFE00
F02D00
E03C00
ENDCHAR
STARTCHAR Aacute
ENCODING 193
SWIDTH 702 0
DWIDTH 8 0
BBX 9 13 0 0
BITMAP
001800
007C00
01F000
008000
005000
01F400
0BF400
1FB800
2E7D00
7EBF40
BBFE00
F02D00
E03C00
ENDCHAR
STARTCHAR Acircumflex
ENCODING 194
SWIDTH 702 0
DWIDTH 8 0
BBX 9 13 0 0
BITMAP
001000
00F400
03ED00
020500
005000
01F400
0BF400
1FB800
2E7D00
7EBF40
BBFE00
F02D00
E03C00
ENDCHAR
STARTCHAR Atilde
ENCODING 195
SWIDTH 702 0
DWIDTH 8 0
BBX 9 12 0 0
BITMAP
01F680
03BF40
010400
005000
01F400
0BF400
1FB800
2E7D00
7EBF40
BBFE00
F02D00
E03C00
ENDCHAR
STARTCHAR Adieresis
ENCODING 196
SWIDTH 702 0
DWIDTH 8 0
BBX 9 12 0 0
BITMAP
024900
038E00
000000
005000
01F400
0BF400
1FB800
2E7D00
7EBF40
BBFE00
F02D00
E03C00
ENDCHAR
STARTCHAR Aring
ENCODING 197
SWIDTH 702 0
DWIDTH 8 0
BBX 9 12 0 0
BITMAP
000400
007800
00ED00
00FC00
01F400
0BF400
1FB800
2E7D00
7EBF40
BBFE00
F02D00
E03C00
ENDCHAR
STARTCHAR AE
ENCODING 198
SWIDTH 1153 0
DWIDTH 14 0
BBX 15 9 -1 0
BITMAP
00080164
007E6FFC
02FEBF90
07EE7940
0B9FBFE0
1FBFFA80
3EFFE050
B81FFFF4
B01EFFA0
ENDCHAR
STARTCHAR Ccedilla
ENCODING 199
SWIDTH 611 0
DWIDTH 7 0
BBX 7 13 0 -4
BITMAP
0024
02FC
1FF8
7F40
F800
F000
B500
7FF4
1FF4
1D00
0B40
16C0
2A40
ENDCHAR
STARTCHAR Egrave
ENCODING 200
SWIDTH 626 0
DWIDTH 8 0
BBX 8 13 0 0
BITMAP
0240
03D0
00B4
0020
0059
2FFE
3FE4
2E50
3FF4
7E90
F414
BFFC
7FE4
ENDCHAR
STARTCHAR Eacute
ENCODING 201
SWIDTH 626 0
DWIDTH 8 0
BBX 8 13 0 0
BITMAP
0018
00BC
01E0
0140
0059
2FFE
3FE4
2E50
3FF4
7E90
F414
BFFC
7FE4
ENDCHAR
STARTCHAR Ecircumflex
ENCODING 202
SWIDTH 626 0
DWIDTH 8 0
BBX 8 12 0 0
BITMAP
01F4
07AD
0608
0059
2FFE
3FE4
2E50
3FF4
7E90
F414
BFFC
7FE4
ENDCHAR
STARTCHAR Edieresis
ENCODING 203
SWIDTH 626 0
DWIDTH 8 0
BBX 8 12 0 0
BITMAP
0619
075D
0000
0059
2FFE
3FE4
2E50
3FF4
7E90
F414
BFFC
7FE4
ENDCHAR
STARTCHAR Igrave
ENCODING 204
SWIDTH 515 0
DWIDTH 6 0
BBX 9 13 -1 0
BITMAP
009000
01F400
007C00
001800
05AA00
0BFF80
01B400
00F000
01E000
02D000
03C000
6FF000
7EA000
ENDCHAR
STARTCHAR Iacute
ENCODING 205
SWIDTH 515 0
DWIDTH 6 0
BBX 9 13 -1 0
BITMAP
000240
000F40
002D00
001400
05AA00
0BFF80
01B400
00F000
01E000
02D000
03C000
6FF000
7EA000
ENDCHAR
STARTCHAR Icircumflex
ENCODING 206
SWIDTH 515 0
DWIDTH 6 0
BBX 9 12 -1 0
BITMAP
007D00
01EB40
008200
05AA00
0BFF80
01B400
00F000
01E000
02D000
03C000
6FF000
7EA000
ENDCHAR
STARTCHAR Idieresis
ENCODING 207
SWIDTH 515 0
DWIDTH 6 0
BBX 9 12 -1 0
BITMAP
009240
01E380
000000
05AA00
0BFF80
01B400
00F000
01E000
02D000
03C000
6FF000
7EA000
ENDCHAR
STARTCHAR Eth
ENCODING 208
SWIDTH 656 0
DWIDTH 8 0
BBX 8 9 0 0
BITMAP
1400
1F80
1EF4
2D2C
FF4E
BD6E
2EF8
3FE0
2D00
ENDCHAR
STARTCHAR Ntilde
ENCODING 209
SWIDTH 684 0
DWIDTH 8 0
BBX 9 12 0 0
BITMAP
00BA80
02EF40
000500
050500
0B4B40
0F8F40
2F4F00
3F5E00
BF7E00
FBFD00
F5F800
606000
ENDCHAR
STARTCHAR Ograve
ENCODING 210
SWIDTH 744 0
DWIDTH 9 0
BBX 9 13 0 0
BITMAP
006000
007C00
001E00
000600
006400
01FC00
07FC00
1FAE00
7D0B00
B80740
F06F40
BFFE00
2FE400
ENDCHAR
STARTCHAR Oacute
ENCODING 211
SWIDTH 744 0
DWIDTH 9 0
BBX 9 13 0 0
BITMAP
001800
007C00
01F000
008000
006400
01FC00
07FC00
1FAE00
7D0B00
B80740
F06F40
BFFE00
2FE400
ENDCHAR
STARTCHAR Ocircumflex
ENCODING 212
SWIDTH 744 0
DWIDTH 9 0
BBX 9 12 0 0
BITMAP
007D00
01EB00
018200
006400
01FC00
07FC00
1FAE00
7D0B00
B80740
F06F40
BFFE00
2FE400
ENDCHAR
STARTCHAR Otilde
ENCODING 213
SWIDTH 744 0
DWIDTH 9 0
BBX 9 12 0 0
BITMAP
00BA80
02EF40
000500
006400
01FC00
07FC00
1FAE00
7D0B00
B80740
F06F40
BFFE00
2FE400
ENDCHAR
STARTCHAR Odieresis
ENCODING 214
SWIDTH 744 0
DWIDTH 9 0
BBX 9 12 0 0
BITMAP
018600
02D740
000000
006400
01FC00
07FC00
1FAE00
7D0B00
B80740
F06F40
BFFE00
2FE400
ENDCHAR
STARTCHAR multiply
ENCODING 215
SWIDTH 490 0
DWIDTH 6 0
BBX 6 6 0 0
BITMAP
74A0
2FD0
1F00
7F00
E380
8140
ENDCHAR
STARTCHAR Oslash
ENCODING 216
SWIDTH 744 0
DWIDTH 9 0
BBX 9 11 0 -2
BITMAP
006640
01FF40
07FF00
1FBE00
7DBF00
BAE740
FBEF40
BFFE00
3FE400
3C0000
140000
ENDCHAR
STARTCHAR Ugrave
ENCODING 217
SWIDTH 695 0
DWIDTH 8 0
BBX 9 12 0 0
BITMAP
060000
07C000
01E000
005100
200340
380780
7C0B40
781F40
787E00
7FF800
3FE000
1F4000
ENDCHAR
STARTCHAR Uacute
ENCODING 218
SWIDTH 695 0
DWIDTH 8 0
BBX 9 13 0 0
BITMAP
000900
003D00
00B400
005000
000100
200340
380780
7C0B40
781F40
787E00
7FF800
3FE000
1F4000
ENDCHAR
STARTCHAR Ucircumflex
ENCODING 219
SWIDTH 695 0
DWIDTH 8 0
BBX 9 12 0 0
BITMAP
01F400
07AD00
020800
000100
200340
380780
7C0B40
781F40
787E00
7FF800
3FE000
1F4000
ENDCHAR
STARTCHAR Udieresis
ENCODING 220
SWIDTH 695 0
DWIDTH 8 0
BBX 9 12 0 0
BITMAP
024900
074E00
000000
000100
200340
380780
7C0B40
781F40
787E00
7FF800
3FE000
1F4000
ENDCHAR
STARTCHAR Yacute
ENCODING 221
SWIDTH 493 0
DWIDTH 6 0
BBX 7 14 0 -1
BITMAP
0024
00B8
01E0
0140
2028
78BC
3DF4
3FD0
2F80
1F40
2E00
7C00
7800
1000
ENDCHAR
STARTCHAR Thorn
ENCODING 222
SWIDTH 680 0
DWIDTH 8 0
BBX 8 9 0 0
BITMAP
0400
2D00
3FF9
3EAF
782F
BAFD
BFE0
B900
7400
ENDCHAR
STARTCHAR germandbls
ENCODING 223
SWIDTH 931 0
DWIDTH 11 0
BBX 13 9 0 -1
BITMAP
00000400
1BF9BF00
BEAFEA40
BE1FD000
1B85B400
02C02800
1B86F400
7D0B9000
10000000
ENDCHAR
STARTCHAR agrave
ENCODING 224
SWIDTH 581 0
DWIDTH 7 0
BBX 7 11 0 0
BITMAP
0240
07D0
01F0
0020
02C0
0FD0
2ED0
3CF4
BFF8
E5B4
D0E0
ENDCHAR
STARTCHAR aacute
ENCODING 225
SWIDTH 581 0
DWIDTH 7 0
BBX 7 11 0 0
BITMAP
0060
01F0
07C0
0200
02C0
0FD0
2ED0
3CF4
BFF8
E5B4
D0E0
ENDCHAR
STARTCHAR acircumflex
ENCODING 226
SWIDTH 581 0
DWIDTH 7 0
BBX 7 11 0 0
BITMAP
0040
03E0
0FB8
0914
02C0
0FD0
2ED0
3CF4
BFF8
E5B4
D0E0
ENDCHAR
STARTCHAR atilde
ENCODING 227
SWIDTH 581 0
DWIDTH 7 0
BBX 8 10 0 0
BITMAP
07D9
0EFC
0410
02C0
0FD0
2ED0
3CF4
BFF8
E5B4
D0E0
ENDCHAR
STARTCHAR adieresis
ENCODING 228
SWIDTH 581 0
DWIDTH 7 0
BBX 7 10 0 0
BITMAP
0618
0F2C
0000
02C0
0FD0
2ED0
3CF4
BFF8
E5B4
D0E0
ENDCHAR
STARTCHAR aring
ENCODING 229
SWIDTH 581 0
DWIDTH 7 0
BBX 7 10 0 0
BITMAP
0060
01F0
03B4
03E0
0FD0
2ED0
3CF4
BFF8
E5B4
D0E0
ENDCHAR
STARTCHAR ae
ENCODING 230
SWIDTH 948 0
DWIDTH 11 0
BBX 13 7 -1 0
BITMAP
0075AF80
03FBFA00
0BB7D400
1E7BFD00
3FFF5400
767FAA00
A07BFE00
ENDCHAR
STARTCHAR ccedilla
ENCODING 231
SWIDTH 513 0
DWIDTH 6 0
BBX 6 11 0 -4
BITMAP
02E0
1FE0
7E00
F400
E000
BA90
2FD0
1D00
0B40
2B40
1500
ENDCHAR
STARTCHAR egrave
ENCODING 232
SWIDTH 521 0
DWIDTH 6 0
BBX 7 11 0 0
BITMAP
1800
1F00
0780
0180
1AF4
7F90
3D40
7FD0
B500
FAA0
BFD0
ENDCHAR
STARTCHAR eacute
ENCODING 233
SWIDTH 521 0
DWIDTH 6 0
BBX 7 11 0 0
BITMAP
0060
02F0
0780
0500
1AF4
7F90
3D40
7FD0
B500
FAA0
BFD0
ENDCHAR
STARTCHAR ecircumflex
ENCODING 234
SWIDTH 521 0
DWIDTH 6 0
BBX 7 11 0 0
BITMAP
0040
02E0
0B78
0914
1AF4
7F90
3D40
7FD0
B500
FAA0
BFD0
ENDCHAR
STARTCHAR edieresis
ENCODING 235
SWIDTH 521 0
DWIDTH 6 0
BBX 7 10 0 0
BITMAP
0618
0F2C
0000
1AF4
7F90
3D40
7FD0
B500
FAA0
BFD0
ENDCHAR
STARTCHAR igrave
ENCODING 236
SWIDTH 320 0
DWIDTH 4 0
BBX 5 11 0 0
BITMAP
2400
3E00
0B40
0140
1C00
2C00
3C00
3800
7400
7400
3400
ENDCHAR
STARTCHAR iacute
ENCODING 237
SWIDTH 320 0
DWIDTH 4 0
BBX 7 12 0 0
BITMAP
0060
01F4
03D0
0200
0000
1C00
2C00
3C00
3800
7400
7400
3400
ENDCHAR
STARTCHAR icircumflex
ENCODING 238
SWIDTH 320 0
DWIDTH 4 0
BBX 6 11 0 0
BITMAP
1F40
7AD0
2080
0000
1C00
2C00
3C00
3800
7400
7400
3400
ENDCHAR
STARTCHAR idieresis
ENCODING 239
SWIDTH 320 0
DWIDTH 4 0
BBX 6 10 0 0
BITMAP
6190
B5D0
0000
1C00
2C00
3C00
3800
7400
7400
3400
ENDCHAR
STARTCHAR eth
ENCODING 240
SWIDTH 541 0
DWIDTH 7 0
BBX 8 7 -1 0
BITMAP
0A40
0EE0
1E28
7F4D
1E7C
1FE0
0E40
ENDCHAR
STARTCHAR ntilde
ENCODING 241
SWIDTH 564 0
DWIDTH 7 0
BBX 9 10 0 0
BITMAP
01E740
07BE00
011400
0D2800
1F3C00
3E3800
7E7400
FEF400
F7E000
A18000
ENDCHAR
STARTCHAR ograve
ENCODING 242
SWIDTH 628 0
DWIDTH 8 0
BBX 7 11 0 0
BITMAP
0180
02E0
00B4
0054
02E0
0BF0
2E74
7828
B02C
BAFC
7FE0
ENDCHAR
STARTCHAR oacute
ENCODING 243
SWIDTH 628 0
DWIDTH 8 0
BBX 7 11 0 0
BITMAP
0060
01F4
03D0
0240
02E0
0BF0
2E74
7828
B02C
BAFC
7FE0
ENDCHAR
STARTCHAR ocircumflex
ENCODING 244
SWIDTH 628 0
DWIDTH 8 0
BBX 8 11 0 0
BITMAP
01F4
07AD
0208
0040
02E0
0BF0
2E74
7828
B02C
BAFC
7FE0
ENDCHAR
STARTCHAR otilde
ENCODING 245
SWIDTH 628 0
DWIDTH 8 0
BBX 9 10 0 0
BITMAP
01E740
07BE00
015400
02E000
0BF000
2E7400
782800
B02C00
BAFC00
7FE000
ENDCHAR
STARTCHAR odieresis
ENCODING 246
SWIDTH 628 0
DWIDTH 8 0
BBX 8 10 0 0
BITMAP
0249
078E
0040
02E0
0BF0
2E74
7828
B02C
BAFC
7FE0
ENDCHAR
STARTCHAR divide
ENCODING 247
SWIDTH 559 0
DWIDTH 7 0
BBX 6 7 0 0
BITMAP
0340
0780
0540
FFF0
6540
1D00
1D00
ENDCHAR
STARTCHAR oslash
ENCODING 248
SWIDTH 632 0
DWIDTH 8 0
BBX 7 10 0 -2
BITMAP
0040
02EC
0BFC
2EF4
7AE8
B7AC
BFFC
7FE0
3800
1000
ENDCHAR
STARTCHAR ugrave
ENCODING 249
SWIDTH 584 0
DWIDTH 7 0
BBX 8 11 0 0
BITMAP
0600
0B80
02E0
0050
100C
341D
742C
7478
7AF4
3FD0
2E40
ENDCHAR
STARTCHAR uacute
ENCODING 250
SWIDTH 584 0
DWIDTH 7 0
BBX 8 11 0 0
BITMAP
0024
00B8
01E0
0140
100C
341D
742C
7478
7AF4
3FD0
2E40
ENDCHAR
STARTCHAR ucircumflex
ENCODING 251
SWIDTH 584 0
DWIDTH 7 0
BBX 8 12 0 0
BITMAP
0040
02E0
0B78
0518
0000
100C
341D
742C
7478
7AF4
3FD0
2E40
ENDCHAR
STARTCHAR udieresis
ENCODING 252
SWIDTH 584 0
DWIDTH 7 0
BBX 8 10 0 0
BITMAP
0618
0F2C
0000
100C
341D
742C
7478
7AF4
3FD0
2E40
ENDCHAR
STARTCHAR yacute
ENCODING 253
SWIDTH 400 0
DWIDTH 5 0
BBX 7 13 0 -1
BITMAP
0024
00F4
03D0
0240
0000
70F0
76E0
3F80
2F00
2D00
3800
7400
1000
ENDCHAR
STARTCHAR thorn
ENCODING 254
SWIDTH 579 0
DWIDTH 7 0
BBX 7 7 0 0
BITMAP
2800
3FE4
79BC
B5B8
BFE0
B900
7000
ENDCHAR
STARTCHAR ydieresis
ENCODING 255
SWIDTH 400 0
DWIDTH 5 0
BBX 7 12 0 -1
BITMAP
0924
1D38
0000
0000
70F0
76E0
3F80
2F00
2D00
3800
7400
1000
ENDCHAR
STARTCHAR dotlessi
ENCODING 305
SWIDTH 320 0
DWIDTH 4 0
BBX 3 7 0 0
BITMAP
1C
2C
3C
38
74
74
34
ENDCHAR
STARTCHAR Lslash
ENCODING 321
SWIDTH 632 0
DWIDTH 8 0
BBX 8 9 -1 0
BITMAP
0240
07C0
0B80
0FE0
BF90
BE00
2D54
2FFF
1FAA
ENDCHAR
STARTCHAR lslash
ENCODING 322
SWIDTH 533 0
DWIDTH 6 0
BBX 7 7 -1 0
BITMAP
0740
0B40
1F80
BE40
BC00
3EF8
2FA8
ENDCHAR
STARTCHAR OE
ENCODING 338
SWIDTH 1212 0
DWIDTH 15 0
BBX 15 9 0 0
BITMAP
00640164
01FCBFF8
07FCFF90
1FAEB940
7D0BFFD0
B807FA40
F06FD050
BFFFFFF0
2FE5FF90
ENDCHAR
STARTCHAR oe
ENCODING 339
SWIDTH 1010 0
DWIDTH 12 0
BBX 13 8 0 0
BITMAP
00400000
02E1BF40
0BF7F900
2E779400
782FFC00
B02F5000
BAFFAE00
7FEBFD00
ENDCHAR
STARTCHAR Scaron
ENCODING 352
SWIDTH 576 0
DWIDTH 7 0
BBX 8 12 0 0
BITMAP
075D
02F8
00A0
0169
1FFF
BF55
BF80
2BD0
00B0
02E0
6FD0
7E00
ENDCHAR
STARTCHAR scaron
ENCODING 353
SWIDTH 463 0
DWIDTH 6 0
BBX 7 12 0 -1
BITMAP
1C70
1FE0
0280
0000
1BF8
BEA4
BE00
1B80
02C0
1B80
7D00
1000
ENDCHAR
STARTCHAR Ydieresis
ENCODING 376
SWIDTH 493 0
DWIDTH 6 0
BBX 7 13 0 -1
BITMAP
0618
0F2C
0000
2028
78BC
3DF4
3FD0
2F80
1F40
2E00
7C00
7800
1000
ENDCHAR
STARTCHAR Zcaron
ENCODING 381
SWIDTH 664 0
DWIDTH 8 0
BBX 9 14 0 -1
BITMAP
01D740
00BF00
002800
000000
0AA500
1FFF40
05BF00
01F800
0BE000
7F4000
FD1800
FAFD00
BFE400
150000
ENDCHAR
STARTCHAR zcaron
ENCODING 382
SWIDTH 547 0
DWIDTH 7 0
BBX 8 12 0 -1
BITMAP
075D
02F8
00A0
0000
2FF8
0AF8
02E0
1F80
BD00
F6F0
FF90
1400
ENDCHAR
STARTCHAR circumflex
ENCODING 710
SWIDTH 754 0
DWIDTH 9 0
BBX 5 4 3 6
BITMAP
0400
3D00
FB40
8140
ENDCHAR
STARTCHAR caron
ENCODING 711
SWIDTH 754 0
DWIDTH 9 0
BBX 5 3 3 6
BITMAP
D380
BF40
1800
ENDCHAR
STARTCHAR breve
ENCODING 728
SWIDTH 754 0
DWIDTH 9 0
BBX 5 3 3 6
BITMAP
D680
BF40
1400
ENDCHAR
STARTCHAR dotaccent
ENCODING 729
SWIDTH 754 0
DWIDTH 9 0
BBX 2 2 4 7
BITMAP
60
B0
ENDCHAR
STARTCHAR ring
ENCODING 730
SWIDTH 754 0
DWIDTH 9 0
BBX 4 4 3 6
BITMAP
09
2E
7B
7D
ENDCHAR
STARTCHAR ogonek
ENCODING 731
SWIDTH 754 0
DWIDTH 9 0
BBX 5 5 3 -4
BITMAP
1000
6000
7500
2FC0
0100
ENDCHAR
STARTCHAR tilde
ENCODING 732
SWIDTH 754 0
DWIDTH 9 0
BBX 6 3 2 6
BITMAP
2E70
7BE0
0140
ENDCHAR
STARTCHAR hungarumlaut
ENCODING 733
SWIDTH 754 0
DWIDTH 9 0
BBX 7 4 2 5
BITMAP
1824
7DF4
F6D0
9140
ENDCHAR
STARTCHAR endash
ENCODING 8211
SWIDTH 588 0
DWIDTH 7 0
BBX 6 2 0 2
BITMAP
BFF0
6A90
ENDCHAR
STARTCHAR emdash
ENCODING 8212
SWIDTH 878 0
DWIDTH 11 0
BBX 10 2 0 2
BITMAP
BFFFD0
6A5550
ENDCHAR
STARTCHAR quoteleft
ENCODING 8216
SWIDTH 203 0
DWIDTH 2 0
BBX 3 4 1 5
BITMAP
78
B4
F0
50
ENDCHAR
STARTCHAR quoteright
ENCODING 8217
SWIDTH 199 0
DWIDTH 2 0
BBX 3 4 1 5
BITMAP
34
78
F0
50
ENDCHAR
STARTCHAR quotesinglbase
ENCODING 8218
SWIDTH 204 0
DWIDTH 2 0
BBX 3 4 -1 -2
BITMAP
20
74
F0
E0
ENDCHAR
STARTCHAR quotedblleft
ENCODING 8220
SWIDTH 410 0
DWIDTH 5 0
BBX 5 4 1 5
BITMAP
76C0
B780
E740
9200
ENDCHAR
STARTCHAR quotedblright
ENCODING 8221
SWIDTH 425 0
DWIDTH 5 0
BBX 6 4 1 5
BITMAP
35D0
7AD0
F780
5600
ENDCHAR
STARTCHAR quotedblbase
ENCODING 8222
SWIDTH 430 0
DWIDTH 5 0
BBX 5 4 -1 -2
BITMAP
2140
76C0
F780
EB00
ENDCHAR
STARTCHAR bullet
ENCODING 8226
SWIDTH 299 0
DWIDTH 4 0
BBX 3 3 0 2
BITMAP
74
B8
64
ENDCHAR
STARTCHAR ellipsis
ENCODING 8230
SWIDTH 768 0
DWIDTH 9 0
BBX 9 3 -1 -1
BITMAP
24A180
78F2C0
100000
ENDCHAR
STARTCHAR perthousand
ENCODING 8240
SWIDTH 889 0
DWIDTH 11 0
BBX 11 9 0 0
BITMAP
040100
1E0A00
7B2D00
7EB400
02D000
0B6470
2DF9F4
75EEF8
60A5A4
ENDCHAR
STARTCHAR guilsinglleft
ENCODING 8249
SWIDTH 322 0
DWIDTH 4 0
BBX 4 5 0 0
BITMAP
09
7C
E0
B4
2C
ENDCHAR
STARTCHAR guilsinglright
ENCODING 8250
SWIDTH 341 0
DWIDTH 4 0
BBX 5 5 -1 0
BITMAP
2800
1E00
0B40
2E00
7400
ENDCHAR
STARTCHAR fraction
ENCODING 8260
SWIDTH 541 0
DWIDTH 7 0
BBX 7 9 0 0
BITMAP
0014
0074
00E0
02C0
0B40
2D00
7800
B000
A000
ENDCHAR
STARTCHAR Euro
ENCODING 8364
SWIDTH 565 0
DWIDTH 7 0
BBX 7 7 0 0
BITMAP
01F4
0BF0
2F40
BF90
BA90
2FE0
06E0
ENDCHAR
STARTCHAR Delta
ENCODING 8710
SWIDTH 403 0
DWIDTH 5 0
BBX 8 8 -1 0
BITMAP
0050
0FFD
06D4
02C0
0380
0740
1B80
7F90
ENDCHAR
STARTCHAR minus
ENCODING 8722
SWIDTH 548 0
DWIDTH 7 0
BBX 6 2 0 2
BITMAP
BFE0
AA50
ENDCHAR
STARTCHAR approxequal
ENCODING 8776
SWIDTH 323 0
DWIDTH 4 0
BBX 4 9 0 0
BITMAP
08
2D
2D
3D
7C
78
B8
78
34
ENDCHAR
STARTCHAR fi
ENCODING 64257
SWIDTH 810 0
DWIDTH 10 0
BBX 9 8 0 0
BITMAP
001000
1BFD80
7E56C0
2C03C0
BE9780
FF8740
B00740
A00340
ENDCHAR
STARTCHAR fl
ENCODING 64258
SWIDTH 1012 0
DWIDTH 12 0
BBX 12 8 0 0
BITMAP
001000
1BFEC0
7E57C0
2C0780
BE9B40
FF8F00
B00FBD
A00BEA
ENDCHAR
STARTCHAR .notdef
ENCODING -1
SWIDTH 370 0
DWIDTH 4 0
BBX 1 1 0 0
BITMAP
00
ENDCHAR
ENDFONT
